Coordinates
version=1
nRows=49
nColumns=12
inDegrees=yes

Units are S.I. units (second, meters, Newtons, ...)
Angles are in degrees

endheader
time	SC_y	SC_z	SC_x	AC_y	AC_z	AC_x	GH_y	GH_z	GH_yy	EL_x	PS_y
       0.0              -33.87           13.6          59.49          41.11          -11.8         0.4688          175.7         -19.15         -160.6          119.0          151.9
   0.03134              -33.87           13.6          59.49          41.11          -11.8         0.4666          175.6         -19.15         -160.6          119.0          151.9
   0.06268              -33.87           13.6           59.5          41.11          -11.8         0.4642          175.6         -19.15         -160.6          119.0          151.9
   0.09402              -33.87          13.61           59.5          41.11          -11.8         0.4616          175.6         -19.15         -160.5          119.0          151.9
    0.1254              -33.87          13.61          59.51          41.11          -11.8         0.4589          175.5         -19.15         -160.5          119.0          151.9
    0.1567              -33.87          13.62          59.51          41.11          -11.8          0.456          175.5         -19.15         -160.4          119.0          151.9
     0.188              -33.86          13.62          59.52          41.11          -11.8         0.4529          175.4         -19.15         -160.4          118.9          151.9
    0.2194              -33.86          13.63          59.52          41.11          -11.8         0.4496          175.4         -19.14         -160.4          118.9          151.9
    0.2507              -33.86          13.63          59.53          41.11          -11.8          0.446          175.3         -19.14         -160.3          118.9          151.9
    0.2821              -33.86          13.64          59.53           41.1          -11.8         0.4422          175.3         -19.14         -160.3          118.9          151.8
    0.3134              -33.86          13.64          59.54           41.1          -11.8         0.4381          175.2         -19.14         -160.2          118.9          151.8
    0.3448              -33.85          13.65          59.55           41.1         -11.79         0.4337          175.2         -19.14         -160.2          118.9          151.8
    0.3761              -33.85          13.66          59.56           41.1         -11.79          0.429          175.1         -19.14         -160.1          118.9          151.8
    0.4074              -33.85          13.67          59.56           41.1         -11.79         0.4238          175.0         -19.14         -160.0          118.9          151.8
    0.4388              -33.85          13.67          59.57           41.1         -11.79         0.4183          175.0         -19.14         -160.0          118.9          151.7
    0.4701              -33.84          13.68          59.58           41.1         -11.79         0.4123          174.9         -19.14         -159.9          118.9          151.7
    0.5015              -33.84          13.69          59.59           41.1         -11.79         0.4057          174.8         -19.14         -159.8          118.9          151.7
    0.5328              -33.83           13.7          59.61          41.09         -11.79         0.3986          174.7         -19.13         -159.7          118.9          151.7
    0.5641              -33.83          13.71          59.62          41.09         -11.78         0.3908          174.6         -19.13         -159.6          118.9          151.6
    0.5955              -33.82          13.73          59.63          41.09         -11.78         0.3823          174.5         -19.13         -159.5          118.8          151.6
    0.6268              -33.82          13.74          59.65          41.09         -11.78         0.3729          174.3         -19.13         -159.4          118.8          151.6
    0.6582              -33.81          13.76          59.66          41.09         -11.78         0.3627          174.2         -19.13         -159.2          118.8          151.5
    0.6895              -33.81          13.77          59.68          41.08         -11.77         0.3513          174.0         -19.12         -159.1          118.8          151.5
    0.7209               -33.8          13.79           59.7          41.08         -11.77         0.3387          173.9         -19.12         -158.9          118.8          151.4
    0.7522              -33.79          13.81          59.73          41.08         -11.77         0.3247          173.7         -19.12         -158.8          118.8          151.4
    0.7835              -33.78          13.84          59.75          41.07         -11.76         0.3091          173.5         -19.11         -158.6          118.7          151.3
    0.8149              -33.77          13.86          59.78          41.07         -11.76         0.2915          173.2         -19.11         -158.3          118.7          151.2
    0.8462              -33.76          13.89          59.81          41.06         -11.75         0.2719          172.9         -19.11         -158.1          118.7          151.1
    0.8776              -33.75          13.93          59.85          41.06         -11.75         0.2496          172.6          -19.1         -157.8          118.6          151.0
    0.9089              -33.73          13.97          59.89          41.05         -11.74         0.2243          172.3          -19.1         -157.5          118.6          150.9
    0.9402              -33.72          14.01          59.94          41.04         -11.74         0.1955          171.9         -19.09         -157.1          118.6          150.8
    0.9716               -33.7          14.06          59.99          41.04         -11.73         0.1624          171.4         -19.08         -156.7          118.5          150.7
     1.003              -33.68          14.12          60.05          41.03         -11.72         0.1242          170.9         -19.08         -156.2          118.5          150.5
     1.034              -33.65          14.18          60.13          41.02         -11.71        0.07982          170.3         -19.07         -155.6          118.4          150.3
     1.066              -33.62          14.26          60.21           41.0         -11.69        0.02788          169.6         -19.06         -154.9          118.3          150.1
     1.097              -33.59          14.35          60.31          40.99         -11.68       -0.03336          168.8         -19.04         -154.1          118.2          149.9
     1.128              -33.55          14.46          60.43          40.97         -11.66        -0.1061          167.8         -19.03         -153.2          118.1          149.6
      1.16               -33.5          14.59          60.57          40.95         -11.64        -0.1933          166.6         -19.01         -152.1          118.0          149.2
     1.191              -33.43          14.75          60.75          40.93         -11.61        -0.2989          165.1         -18.99         -150.7          117.8          148.8
     1.222              -33.36          14.95          60.96          40.89         -11.58        -0.4278          163.3         -18.96         -149.1          117.6          148.3
     1.254              -33.27          15.18          61.22          40.86         -11.54        -0.5869          161.1         -18.92         -147.0          117.4          147.6
     1.285              -33.16          15.48          61.54          40.81         -11.49        -0.7853          158.4         -18.88         -144.5          117.1          146.8
     1.316              -33.01          15.86          61.95          40.75         -11.43         -1.035          155.0         -18.83         -141.2          116.7          145.8
     1.348              -32.83          16.34          62.47          40.67         -11.35         -1.353          150.6         -18.76         -137.1          116.2          144.4
     1.379               -32.6          16.95          63.14          40.57         -11.25          -1.76          145.0         -18.68         -131.9          115.6          142.8
      1.41               -32.3          17.73          63.99          40.45         -11.12         -2.281          137.8         -18.56         -125.2          114.9          140.6
     1.442              -31.92          18.73          65.09          40.28         -10.96         -2.948          128.7         -18.42         -116.6          113.9          137.9
     1.473              -31.44          19.99          66.46          40.08         -10.75         -3.786          117.1         -18.24         -105.8          112.6          134.4
     1.504              -30.86          21.53          68.13          39.83          -10.5         -4.808          103.1         -18.03         -92.63          111.1          130.2
